<svg width="93" height="11" viewBox="0 0 93 11" fill="none" xmlns="http://www.w3.org/2000/svg">
<path d="M0.148 10V0.228H6.588V1.866H1.996V4.232H6.056V5.87H1.996V8.362H6.588V10H0.148ZM10.5505 10H8.70253V0.228H13.1125C13.5605 0.228 13.9619 0.298 14.3165 0.438C14.6712 0.577999 14.9699 0.783333 15.2125 1.054C15.4645 1.31533 15.6559 1.63267 15.7865 2.006C15.9265 2.37933 15.9965 2.79467 15.9965 3.252C15.9965 3.924 15.8425 4.50267 15.5345 4.988C15.2359 5.47333 14.7832 5.81867 14.1765 6.024L16.1785 10H14.1205L12.3005 6.234H10.5505V10ZM12.9305 4.68C13.2852 4.68 13.5652 4.58667 13.7705 4.4C13.9759 4.204 14.0785 3.92867 14.0785 3.574V2.93C14.0785 2.57533 13.9759 2.30467 13.7705 2.118C13.5652 1.93133 13.2852 1.838 12.9305 1.838H10.5505V4.68H12.9305ZM17.7534 10V8.516H19.0414V1.712H17.7534V0.228H22.1914V1.712H20.8894V8.516H22.1914V10H17.7534ZM28.0333 10.168C27.3893 10.168 26.806 10.0653 26.2833 9.86C25.77 9.64533 25.3267 9.328 24.9533 8.908C24.5893 8.488 24.3093 7.97 24.1133 7.354C23.9173 6.72867 23.8193 6.00533 23.8193 5.184C23.8193 4.36267 23.9173 3.63467 24.1133 3C24.3093 2.356 24.5893 1.81933 24.9533 1.39C25.3267 0.951333 25.77 0.619999 26.2833 0.395999C26.806 0.171999 27.3893 0.0599995 28.0333 0.0599995C28.9107 0.0599995 29.6387 0.246666 30.2173 0.62C30.796 0.993333 31.258 1.558 31.6033 2.314L30.0213 3.154C29.8813 2.71533 29.6527 2.36533 29.3353 2.104C29.018 1.83333 28.584 1.698 28.0333 1.698C27.3427 1.698 26.792 1.93133 26.3813 2.398C25.98 2.86467 25.7793 3.518 25.7793 4.358V5.898C25.7793 6.74733 25.98 7.40067 26.3813 7.858C26.792 8.306 27.3427 8.53 28.0333 8.53C28.584 8.53 29.032 8.38067 29.3773 8.082C29.732 7.78333 29.9887 7.41467 30.1473 6.976L31.6453 7.858C31.2907 8.586 30.8193 9.15533 30.2313 9.566C29.6433 9.96733 28.9107 10.168 28.0333 10.168ZM39.6503 4.988L38.6423 2.958H38.6003V10H36.8503V0.228H38.8803L41.8203 5.24L42.8283 7.27H42.8703V0.228H44.6203V10H42.5903L39.6503 4.988ZM52.4628 0.228V7.256C52.4628 7.69467 52.3882 8.09133 52.2388 8.446C52.0988 8.80067 51.8935 9.104 51.6228 9.356C51.3615 9.608 51.0395 9.804 50.6568 9.944C50.2742 10.084 49.8448 10.154 49.3688 10.154C48.4635 10.154 47.7588 9.92067 47.2548 9.454C46.7508 8.978 46.4288 8.348 46.2888 7.564L47.9968 7.214C48.0808 7.634 48.2302 7.96067 48.4448 8.194C48.6688 8.418 48.9722 8.53 49.3548 8.53C49.7188 8.53 50.0175 8.418 50.2508 8.194C50.4935 7.96067 50.6148 7.606 50.6148 7.13V1.74H47.5348V0.228H52.4628ZM60.6773 10L59.8933 7.508H56.4213L55.6513 10H53.7753L57.0513 0.228H59.3473L62.5953 10H60.6773ZM58.1853 1.908H58.1153L56.8693 5.926H59.4453L58.1853 1.908ZM66.9956 4.988L65.9876 2.958H65.9456V10H64.1956V0.228H66.2256L69.1656 5.24L70.1736 7.27H70.2156V0.228H71.9656V10H69.9356L66.9956 4.988ZM80.6481 8.488H80.5921C80.5081 8.964 80.2421 9.36533 79.7941 9.692C79.3554 10.0093 78.7674 10.168 78.0301 10.168C77.4514 10.168 76.9147 10.0607 76.4201 9.846C75.9347 9.63133 75.5101 9.314 75.1461 8.894C74.7914 8.46467 74.5114 7.93733 74.3061 7.312C74.1007 6.68667 73.9981 5.96333 73.9981 5.142C73.9981 4.32067 74.1007 3.59733 74.3061 2.972C74.5207 2.33733 74.8194 1.80533 75.2021 1.376C75.5847 0.946666 76.0421 0.619999 76.5741 0.395999C77.1061 0.171999 77.6987 0.0599995 78.3521 0.0599995C79.2294 0.0599995 79.9761 0.251333 80.5921 0.634C81.2081 1.01667 81.6934 1.56733 82.0481 2.286L80.5501 3.168C80.3727 2.748 80.1067 2.398 79.7521 2.118C79.4067 1.838 78.9401 1.698 78.3521 1.698C77.6241 1.698 77.0407 1.922 76.6021 2.37C76.1727 2.80867 75.9581 3.462 75.9581 4.33V5.898C75.9581 6.75667 76.1774 7.41 76.6161 7.858C77.0547 8.306 77.6427 8.53 78.3801 8.53C78.6694 8.53 78.9401 8.49733 79.1921 8.432C79.4441 8.35733 79.6634 8.25 79.8501 8.11C80.0367 7.97 80.1861 7.79733 80.2981 7.592C80.4101 7.38667 80.4661 7.144 80.4661 6.864V6.234H78.5481V4.68H82.2441V10H80.6481V8.488ZM90.5929 10L89.8089 7.508H86.3369L85.5669 10H83.6909L86.9669 0.228H89.2629L92.5109 10H90.5929ZM88.1009 1.908H88.0309L86.7849 5.926H89.3609L88.1009 1.908Z" fill="#161616"/>
</svg>
